<svg xmlns="http://www.w3.org/2000/svg" xmlns:xlink="http://www.w3.org/1999/xlink" width="28" height="29" viewBox="0 0 28 29"><defs><path id="xn1qa" d="M1751.569 592.33a1.481 1.481 0 0 1-2.108-.04l-6.795-7.109a11.268 11.268 0 0 1-6.552 2.082c-6.307 0-11.44-5.162-11.44-11.506 0-6.345 5.133-11.507 11.44-11.507 6.305 0 11.437 5.162 11.437 11.507 0 2.715-.95 5.324-2.684 7.397l6.742 7.055a1.51 1.51 0 0 1-.04 2.122zm-23.91-16.573c0 4.69 3.792 8.505 8.455 8.505 4.66 0 8.454-3.816 8.454-8.505 0-4.69-3.795-8.505-8.454-8.505-4.663 0-8.455 3.815-8.455 8.505z"/></defs><g><g opacity=".75" transform="translate(-1724 -564)"><use fill="#f87d53" xlink:href="#xn1qa"/></g></g></svg>